# xmcd
#
# Track frame offsets: 
#        150
#        26118
#        50124
#        67369
#        98639
#        124319
#        140751
#        160343
#        197500
#        239873
#        259421
#        284743
#        307957
#        320908
#        343194
#
# Disc length: 4798 seconds
#
# Revision: 0
# Processed by: cddbd v1.5.2PL0 Copyright (c) Steve Scherf et al.
# Submitted via: ExactAudioCopy v0.95a5
#
DISCID=0412bc0f
DTITLE=Various Artist - Akella Presents - vol.11 - Blues Rock  CD1
DYEAR=2010
DGENRE=Blues
TTITLE0=Hear My Train a Comin' - JIMMY D'LANE
TTITLE1=Lies - GEORGIA BLUES DAWGS
TTITLE2=Movin' On - DAVID GOGO
TTITLE3=Time Traveler - SOUTHERN GENTLEMEN
TTITLE4=Lonely Nights - INNES SIBUN
TTITLE5=Keep Your Head Above Water - ROB TOGNONI
TTITLE6=Wound Up - MICHAEL KATON
TTITLE7=Understanding - CRAIG ERICKSON
TTITLE8=Dreamin' Girl - SUNSET HEIGHTS
TTITLE9=In Your Face - MOUNTAIN
TTITLE10=Alligator Alley - KEVIN RUSSELL
TTITLE11=Empty Eyes - WALTER TROUT
TTITLE12=Look At That White Girl Dance - CUB KODA
TTITLE13=Catchin' ZS - BLINDSIDE BLUES BAND
TTITLE14=Save Yourself - SUNSET HEIGHTS
EXTD=
EXTT0=
EXTT1=
EXTT2=
EXTT3=
EXTT4=
EXTT5=
EXTT6=
EXTT7=
EXTT8=
EXTT9=
EXTT10=
EXTT11=
EXTT12=
EXTT13=
EXTT14=
PLAYORDER=
